<svg width="50" height="56" viewBox="0 0 50 56" fill="none" xmlns="http://www.w3.org/2000/svg">
<path d="M48.01 38.6637C47.8026 38.4137 47.5988 38.1637 47.3988 37.9225C44.6488 34.5963 42.9851 32.5888 42.9851 23.1725C42.9851 18.2975 41.8188 14.2975 39.5201 11.2975C37.8251 9.08125 35.5338 7.4 32.5138 6.1575C32.4749 6.13588 32.4402 6.10752 32.4113 6.07375C31.3251 2.43625 28.3525 0 25 0C21.6475 0 18.6763 2.43625 17.59 6.07C17.5611 6.10253 17.5268 6.12999 17.4888 6.15125C10.4413 9.0525 7.0163 14.6188 7.0163 23.1688C7.0163 32.5888 5.35505 34.5963 2.60255 37.9188C2.40255 38.16 2.1988 38.405 1.9913 38.66C1.4553 39.3064 1.1157 40.0928 1.01269 40.9262C0.909679 41.7596 1.04757 42.605 1.41005 43.3625C2.1813 44.9875 3.82505 45.9963 5.7013 45.9963H44.3125C46.18 45.9963 47.8126 44.9888 48.5863 43.3713C48.9503 42.6136 49.0895 41.7675 48.9874 40.9331C48.8853 40.0988 48.5461 39.3112 48.01 38.6637ZM25 56C26.8063 55.9985 28.5786 55.5082 30.1288 54.5811C31.6789 53.6539 32.9493 52.3245 33.805 50.7337C33.8454 50.6575 33.8653 50.5722 33.8629 50.486C33.8604 50.3997 33.8358 50.3156 33.7912 50.2418C33.7467 50.1679 33.6838 50.1069 33.6087 50.0645C33.5336 50.0221 33.4488 49.9999 33.3625 50H16.64C16.5537 49.9997 16.4688 50.0218 16.3935 50.064C16.3182 50.1063 16.2551 50.1674 16.2105 50.2412C16.1658 50.3151 16.141 50.3993 16.1385 50.4856C16.136 50.5719 16.1559 50.6574 16.1963 50.7337C17.052 52.3243 18.3221 53.6536 19.8721 54.5807C21.422 55.5079 23.194 55.9983 25 56Z" fill="#ECECEC"/>
</svg>
