<svg width="60" height="56" viewBox="0 0 60 56" fill="none" xmlns="http://www.w3.org/2000/svg">
<path d="M7.34724 50.4114L16.3253 47.4173L17.8967 48.203C21.5066 50.0037 25.52 50.9635 29.7287 50.9635C43.7862 50.9635 55.2105 39.8959 55.2105 27.6052C55.2105 15.3145 43.7862 4.24696 29.7287 4.24696C15.6713 4.24696 4.24696 15.3145 4.24696 27.6052C4.24696 32.192 5.90327 36.8466 8.94834 40.826L10.4135 42.7372L7.34299 50.4072L7.34724 50.4114ZM4.34464 55.89C3.96032 56.0188 3.54717 56.0348 3.154 55.9363C2.76084 55.8379 2.40407 55.6289 2.12585 55.3341C1.84762 55.0394 1.65957 54.6712 1.58389 54.273C1.50822 53.8748 1.54808 53.4633 1.69878 53.087L5.57201 43.4039C2.03854 38.7747 0 33.2367 0 27.6052C0 13.5308 12.7409 0 29.7287 0C46.7166 0 59.4574 13.5308 59.4574 27.6052C59.4574 41.6797 46.7166 55.2105 29.7287 55.2105C24.9643 55.2239 20.2627 54.1245 15.9983 51.9998L4.34464 55.8857V55.89Z" fill="white"/>
<path d="M28.4182 16.5245C28.5517 16.2953 28.743 16.1052 28.9729 15.973C29.2029 15.8409 29.4634 15.7714 29.7286 15.7714C29.9939 15.7714 30.2544 15.8409 30.4844 15.973C30.7143 16.1052 30.9056 16.2953 31.0391 16.5245L34.4306 22.3464L41.0171 23.7734C41.2761 23.8297 41.5159 23.9529 41.7126 24.1308C41.9092 24.3087 42.0557 24.535 42.1376 24.7871C42.2195 25.0393 42.2338 25.3085 42.1792 25.568C42.1246 25.8274 42.003 26.068 41.8264 26.2658L37.3368 31.2905L38.0163 37.9947C38.0431 38.2586 38.0002 38.525 37.8918 38.7673C37.7835 39.0095 37.6135 39.219 37.3988 39.375C37.1841 39.5309 36.9323 39.6279 36.6685 39.6561C36.4046 39.6843 36.138 39.6428 35.8952 39.5357L29.7286 36.8176L23.5621 39.5357C23.3193 39.6428 23.0527 39.6843 22.7888 39.6561C22.525 39.6279 22.2731 39.5309 22.0585 39.375C21.8438 39.219 21.6738 39.0095 21.5655 38.7673C21.4571 38.525 21.4142 38.2586 21.441 37.9947L22.1205 31.2905L17.6309 26.267C17.454 26.0692 17.3321 25.8285 17.2773 25.5689C17.2225 25.3093 17.2368 25.0399 17.3187 24.7875C17.4006 24.5352 17.5473 24.3087 17.7441 24.1308C17.9409 23.9528 18.1809 23.8296 18.4402 23.7734L25.0267 22.3464L28.4182 16.5245Z" fill="white"/>
</svg>
