<svg width="48" height="52" viewBox="0 0 48 52" fill="none" xmlns="http://www.w3.org/2000/svg">
<path d="M22.6814 2.02523L37.9574 10.8322L39.8021 17.7068L20.1615 6.38356C15.3406 3.60415 9.17606 5.25358 6.39268 10.0677C3.6093 14.8817 5.26108 21.0375 10.082 23.8169L27.5403 33.882C28.7455 34.5769 29.1584 36.1158 28.4626 37.3193C27.7668 38.5228 26.2256 38.9352 25.0204 38.2404L7.56216 28.1752C0.330725 24.0061 -2.14695 14.7725 2.02812 7.55137C6.20319 0.330252 15.45 -2.14389 22.6814 2.02523Z" fill="#3DDC84"/>
<path d="M20.1756 49.9748L4.89961 41.1678L3.05493 34.2932L22.6954 45.6164C27.5164 48.3959 33.6809 46.7464 36.4643 41.9324C39.2477 37.1183 37.5959 30.9625 32.775 28.1831L15.3167 18.118C14.1115 17.4231 13.6985 15.8842 14.3944 14.6807C15.0902 13.4772 16.6314 13.0648 17.8366 13.7597L35.2948 23.8248C42.5263 27.9939 45.0039 37.2275 40.8289 44.4486C36.6538 51.6698 27.407 54.1439 20.1756 49.9748Z" fill="#478CBF"/>
<path d="M47 43.3333C47 47.578 43.5998 51 39.4286 51C35.2574 51 31.8572 47.578 31.8572 43.3333C31.8572 39.0887 35.2574 35.6667 39.4286 35.6667C43.5998 35.6667 47 39.0887 47 43.3333Z" stroke="white" stroke-width="2"/>
<path d="M43.2145 43.3335C43.2145 45.4558 41.5144 47.1668 39.4288 47.1668C37.3432 47.1668 35.6431 45.4558 35.6431 43.3335C35.6431 41.2112 37.3432 39.5002 39.4288 39.5002C41.5144 39.5002 43.2145 41.2112 43.2145 43.3335Z" fill="white" stroke="white"/>
</svg>
