<svg width="96" height="96" viewBox="0 0 96 96" fill="none" xmlns="http://www.w3.org/2000/svg">
<rect width="96" height="96" rx="8" fill="#1E1E1E"/>
<path d="M49.279 23.7947L64.8732 32.6864L66.7563 39.6271L46.7066 28.1949C41.7852 25.3888 35.4922 27.0541 32.6509 31.9145C29.8095 36.7748 31.4957 42.9898 36.4171 45.7959L54.239 55.9578C55.4694 56.6593 55.8909 58.2131 55.1806 59.4282C54.4702 60.6433 52.897 61.0596 51.6666 60.358L33.8447 50.1961C26.4626 45.9869 23.9333 36.6645 28.1954 29.374C32.4574 22.0834 41.8969 19.5855 49.279 23.7947Z" fill="#3DDC84"/>
<path d="M46.721 72.2053L31.1268 63.3136L29.2437 56.3729L49.2933 67.8051C54.2147 70.6112 60.5077 68.9459 63.3491 64.0855C66.1904 59.2252 64.5042 53.0103 59.5828 50.2041L41.7609 40.0422C40.5305 39.3407 40.109 37.7869 40.8193 36.5718C41.5297 35.3567 43.1029 34.9404 44.3333 35.642L62.1552 45.8039C69.5373 50.0131 72.0666 59.3355 67.8045 66.626C63.5425 73.9166 54.103 76.4145 46.721 72.2053Z" fill="#478CBF"/>
<path d="M75 65C75 69.9706 70.9706 74 66 74C61.0294 74 57 69.9706 57 65C57 60.0294 61.0294 56 66 56C70.9706 56 75 60.0294 75 65Z" stroke="white" stroke-width="2"/>
<path d="M70.5002 65.0002C70.5002 67.4855 68.4855 69.5002 66.0002 69.5002C63.515 69.5002 61.5002 67.4855 61.5002 65.0002C61.5002 62.5149 63.515 60.5002 66.0002 60.5002C68.4855 60.5002 70.5002 62.5149 70.5002 65.0002Z" fill="white" stroke="white"/>
</svg>
