<svg width="32" height="32" viewBox="0 0 32 32" fill="none" xmlns="http://www.w3.org/2000/svg">
<path d="M0 8C0 3.58172 3.58172 0 8 0H24C28.4183 0 32 3.58172 32 8V24C32 28.4183 28.4183 32 24 32H8C3.58172 32 0 28.4183 0 24V8Z" fill="#0D0D0D" fill-opacity="0.75"/>
<path fill-rule="evenodd" clip-rule="evenodd" d="M8 0C3.58172 0 0 3.58172 0 8V24C0 28.4183 3.58172 32 8 32H24C28.4183 32 32 28.4183 32 24V8C32 3.58172 28.4183 0 24 0H8ZM14.2836 22.6283C13.4934 23.3882 12.2387 23.3703 11.4704 22.5881L6.15734 17.1784C5.51481 16.5242 5.51481 15.4758 6.15734 14.8216C6.81645 14.1505 7.89784 14.1505 8.55695 14.8216L12.8571 19.2L23.4401 9.143C24.1075 8.50871 25.1603 8.52687 25.8055 9.18379C26.4632 9.8534 26.4478 10.931 25.7712 11.5816L14.2836 22.6283Z" fill="white"/>
</svg>
