<svg width="56" height="56" viewBox="0 0 56 56" fill="none" xmlns="http://www.w3.org/2000/svg">
<path d="M25.669 44.3333V46.6667C25.669 47.2855 25.4231 47.879 24.9855 48.3166C24.5479 48.7542 23.9543 49 23.3354 49H18.6683V51.3333C18.6683 52.571 18.1766 53.758 17.3014 54.6332C16.4261 55.5083 15.239 56 14.0013 56H4.66709C3.4293 56 2.24221 55.5083 1.36696 54.6332C0.491709 53.758 0 52.571 0 51.3333V45.2993C0.000264332 44.0618 0.492147 42.875 1.36746 42L19.4244 23.9423C18.3165 20.1824 18.4204 16.1691 19.7214 12.4715C21.0225 8.77388 23.4546 5.57963 26.6729 3.34163C29.8913 1.10363 33.7326 -0.0645374 37.6521 0.00275205C41.5717 0.0700415 45.3706 1.36938 48.5102 3.71652C51.6498 6.06367 53.9709 9.33952 55.1442 13.0796C56.3175 16.8197 56.2836 20.8342 55.0472 24.5539C53.8109 28.2736 51.4348 31.5098 48.256 33.8035C45.0771 36.0973 41.2568 37.3323 37.3367 37.3333H32.6696V42C32.6696 42.6188 32.4237 43.2123 31.9861 43.6499C31.5485 44.0875 30.955 44.3333 30.3361 44.3333H25.669ZM42.0038 18.6667C43.2416 18.6667 44.4287 18.175 45.3039 17.2998C46.1792 16.4247 46.6709 15.2377 46.6709 14C46.6709 12.7623 46.1792 11.5753 45.3039 10.7002C44.4287 9.825 43.2416 9.33333 42.0038 9.33333C40.766 9.33333 39.5789 9.825 38.7036 10.7002C37.8284 11.5753 37.3367 12.7623 37.3367 14C37.3367 15.2377 37.8284 16.4247 38.7036 17.2998C39.5789 18.175 40.766 18.6667 42.0038 18.6667Z" fill="white"/>
</svg>
